<?xml version="1.0" standalone="no"?>
<!DOCTYPE svg PUBLIC "-//W3C//DTD SVG 20010904//EN"
 "http://www.w3.org/TR/2001/REC-SVG-20010904/DTD/svg10.dtd">
<svg version="1.0" xmlns="http://www.w3.org/2000/svg"
 width="96.000000pt" height="96.000000pt" viewBox="0 0 96.000000 96.000000"
 preserveAspectRatio="xMidYMid meet">

<g transform="translate(0.000000,96.000000) scale(0.100000,-0.100000)"
fill="#000000" stroke="none">
<path d="M400 871 c-24 -7 -29 -17 -45 -93 -9 -44 -39 -53 -102 -32 l-55 19
-25 -30 c-31 -39 -73 -119 -73 -142 0 -10 18 -34 40 -54 51 -47 51 -71 0 -118
-22 -20 -40 -44 -40 -54 0 -23 42 -103 73 -142 l25 -30 55 19 c63 21 93 12
102 -32 20 -97 24 -100 125 -100 101 0 105 3 125 100 9 44 39 53 102 32 l55
-19 25 30 c31 39 73 119 73 142 0 10 -18 34 -40 54 -24 22 -40 46 -40 59 0 13
16 37 40 59 22 20 40 44 40 54 0 23 -42 103 -73 142 l-25 30 -55 -19 c-63 -21
-93 -12 -102 32 -20 97 -24 100 -125 100 -30 0 -66 -3 -80 -7z m141 -88 c10
-48 36 -83 76 -100 31 -12 44 -13 81 -2 42 12 45 11 63 -12 35 -45 35 -67 -2
-105 -29 -30 -34 -42 -34 -84 0 -42 5 -54 34 -84 37 -38 37 -60 2 -105 -18
-23 -21 -24 -61 -12 -75 22 -142 -17 -158 -94 l-8 -40 -54 0 c-54 0 -54 0 -61
34 -10 47 -40 84 -83 100 -31 12 -43 12 -77 1 -39 -13 -42 -13 -60 11 -35 45
-35 67 2 105 29 30 34 42 34 84 0 42 -5 54 -34 84 -37 38 -37 60 -2 105 18 23
21 24 63 12 38 -11 50 -10 81 3 39 16 77 67 77 102 0 31 9 35 64 32 48 -3 51
-5 57 -35z"/>
<path d="M412 624 c-107 -55 -121 -198 -26 -271 96 -73 238 -10 251 111 14
119 -120 214 -225 160z m117 -58 c67 -35 65 -143 -4 -174 -51 -23 -107 -7
-131 39 -47 91 44 182 135 135z"/>
</g>
</svg>
