<?xml version="1.0" standalone="no"?>
<!DOCTYPE svg PUBLIC "-//W3C//DTD SVG 20010904//EN"
 "http://www.w3.org/TR/2001/REC-SVG-20010904/DTD/svg10.dtd">
<svg version="1.0" xmlns="http://www.w3.org/2000/svg"
 width="96.000000pt" height="96.000000pt" viewBox="0 0 96.000000 96.000000"
 preserveAspectRatio="xMidYMid meet">

<g transform="translate(0.000000,96.000000) scale(0.100000,-0.100000)"
fill="#000000" stroke="none">
<path d="M310 755 c-91 -73 -161 -136 -172 -156 -16 -29 -18 -61 -18 -250 0
-266 -11 -249 152 -249 150 0 148 -2 148 148 l0 112 60 0 60 0 0 -113 c0 -149
-2 -147 152 -147 99 0 117 3 131 18 25 27 25 427 1 478 -17 36 -320 285 -346
283 -7 0 -83 -56 -168 -124z m278 -27 c58 -46 125 -101 149 -124 l43 -41 0
-201 0 -202 -90 0 -90 0 0 105 c0 99 -2 107 -25 130 -21 22 -33 25 -95 25 -62
0 -74 -3 -95 -25 -23 -23 -25 -31 -25 -130 l0 -105 -90 0 -90 0 0 200 0 200
28 30 c23 26 261 218 271 220 2 0 51 -37 109 -82z"/>
</g>
</svg>
