<?xml version="1.0" standalone="no"?>
<!DOCTYPE svg PUBLIC "-//W3C//DTD SVG 20010904//EN"
 "http://www.w3.org/TR/2001/REC-SVG-20010904/DTD/svg10.dtd">
<svg version="1.0" xmlns="http://www.w3.org/2000/svg"
 width="96.000000pt" height="96.000000pt" viewBox="0 0 96.000000 96.000000"
 preserveAspectRatio="xMidYMid meet">

<g transform="translate(0.000000,96.000000) scale(0.100000,-0.100000)"
fill="#000000" stroke="none">
<path d="M236 810 c-89 -27 -156 -120 -156 -215 0 -45 41 -122 101 -192 66
-75 285 -283 299 -283 6 0 63 50 128 110 216 205 280 297 269 391 -13 108 -88
183 -197 196 -41 5 -59 1 -104 -21 -31 -15 -65 -39 -76 -53 l-20 -26 -20 26
c-45 57 -150 89 -224 67z m131 -67 c20 -9 47 -34 62 -54 42 -61 60 -61 102 0
88 126 284 70 284 -82 0 -43 -6 -61 -37 -107 -42 -62 -278 -300 -298 -300 -20
0 -256 237 -295 296 -40 60 -49 92 -41 139 18 96 132 152 223 108z"/>
</g>
</svg>
