<svg xmlns="http://www.w3.org/2000/svg" width="97.076" height="104.814" viewBox="0 0 97.076 104.814">
  <g id="Grupo_106" data-name="Grupo 106" transform="translate(0 -0.173)">
    <g id="Elipse_26" data-name="Elipse 26" transform="translate(0 72.669) rotate(-90)" fill="none" stroke="#26dcfd" stroke-linecap="round" stroke-linejoin="round" stroke-width="3">
      <ellipse cx="20.089" cy="48.538" rx="20.089" ry="48.538" stroke="none"/>
      <ellipse cx="20.089" cy="48.538" rx="18.589" ry="47.038" fill="none"/>
    </g>
    <g id="Trazado_465" data-name="Trazado 465" transform="translate(6.871 20.282) rotate(-30)" fill="none" stroke-linecap="round">
      <path d="M20.137-.084c11.122-.046,20.047,21.8,19.936,48.8S30.855,97.646,19.734,97.692-.313,75.887-.2,48.888,9.016-.037,20.137-.084Z" stroke="none"/>
      <path d="M 20.1724967956543 2.916412353515625 L 20.14980506896973 2.916458129882812 C 18.26632690429688 2.924270629882812 16.3426342010498 3.922737121582031 14.43214225769043 5.884086608886719 C 12.32034301757812 8.052131652832031 10.30691146850586 11.3582763671875 8.609542846679688 15.44507598876953 C 6.824913024902344 19.74198150634766 5.412895202636719 24.76618194580078 4.412727355957031 30.37813568115234 C 3.367942810058594 36.24039459228516 2.824741363525391 42.47204208374023 2.798202514648438 48.89996719360352 C 2.758621215820312 58.49410247802734 3.886280059814453 67.71455383300781 6.059280395507812 75.56449127197266 C 8.084589004516602 82.88087463378906 10.96971130371094 88.68722534179688 14.18315887451172 91.91396331787109 C 16.01874351501465 93.75714874267578 17.87443542480469 94.69171905517578 19.69868087768555 94.69171905517578 L 19.72140502929688 94.69167327880859 C 21.60486602783203 94.68386077880859 23.5285587310791 93.68540954589844 25.43903541564941 91.72404479980469 C 27.55084991455078 89.55601501464844 29.56426620483398 86.24987030029297 31.26163482666016 82.16307067871094 C 33.0462646484375 77.86616516113281 34.45828247070312 72.84196472167969 35.45845031738281 67.23001098632812 C 36.50323486328125 61.36775207519531 37.04643630981445 55.13610458374023 37.07297515869141 48.70817947387695 C 37.11255645751953 39.11404418945312 35.98489761352539 29.89359283447266 33.81189727783203 22.04364013671875 C 31.78657341003418 14.72725677490234 28.90146636962891 8.920906066894531 25.68800354003906 5.69415283203125 C 23.85241889953613 3.850982666015625 21.99674224853516 2.916412353515625 20.1724967956543 2.916412353515625 M 20.17249298095703 -0.083587646484375 C 31.27793121337891 -0.083587646484375 40.18425750732422 21.74871826171875 40.07294082641602 48.72056579589844 C 39.96151351928711 75.72042846679688 30.85537338256836 97.64553833007812 19.73383522033691 97.69164276123047 C 8.612344741821289 97.73777008056641 -0.3131942749023438 75.88743591308594 -0.2017631530761719 48.88758087158203 C -0.09033584594726562 21.88771820068359 9.015804290771484 -0.03739166259765625 20.13735771179199 -0.0835113525390625 C 20.14889717102051 -0.08355712890625 20.16095733642578 -0.083587646484375 20.17249298095703 -0.083587646484375 Z" stroke="none" fill="#26dcfd"/>
    </g>
    <g id="Trazado_466" data-name="Trazado 466" transform="translate(41.666 105.16) rotate(-150)" fill="none" stroke-linecap="round">
      <path d="M20.137.084C31.259.13,40.365,22.055,40.476,49.055s-8.814,48.85-19.936,48.8S.313,75.887.2,48.888,9.016.037,20.137.084Z" stroke="none"/>
      <path d="M 20.10222053527832 3.083419799804688 C 18.27837562561035 3.083419799804688 16.42297554016113 4.017913818359375 14.58755874633789 5.860923767089844 C 11.3740062713623 9.087776184082031 8.488712310791016 14.89430999755859 6.463191986083984 22.21094512939453 C 4.289928436279297 30.06118774414062 3.162143707275391 39.28152847290039 3.201728820800781 48.87518692016602 C 3.228267669677734 55.3031120300293 3.771465301513672 61.53475952148438 4.816249847412109 67.39701843261719 C 5.816421508789062 73.00897216796875 7.228435516357422 78.03317260742188 9.013067245483398 82.330078125 C 10.71043586730957 86.41687774658203 12.72385215759277 89.7230224609375 14.83566665649414 91.89105224609375 C 16.74614334106445 93.8524169921875 18.66983604431152 94.85086822509766 20.55220603942871 94.85866546630859 L 20.57602119445801 94.85872650146484 C 22.39986801147461 94.85872650146484 24.2552661895752 93.92423248291016 26.09068298339844 92.08122253417969 C 29.30423736572266 88.85438537597656 32.18952941894531 83.04783630371094 34.21504974365234 75.73121643066406 C 36.38829803466797 67.88097381591797 37.51608276367188 58.6606330871582 37.47649765014648 49.06697463989258 C 37.44995880126953 42.6390495300293 36.90676116943359 36.40740203857422 35.86197662353516 30.54514312744141 C 34.8618049621582 24.93318939208984 33.44979095458984 19.90898895263672 31.66515922546387 15.61208343505859 C 29.9677906036377 11.52528381347656 27.95437431335449 8.219139099121094 25.84255981445312 6.051094055175781 C 23.93208312988281 4.089744567871094 22.00839042663574 3.091278076171875 20.12602043151855 3.083480834960938 L 20.10222053527832 3.083419799804688 M 20.10222434997559 0.0834197998046875 C 20.11443710327148 0.0834197998046875 20.12514114379883 0.08344268798828125 20.13735961914062 0.08349609375 C 31.25889778137207 0.1296157836914062 40.36503601074219 22.05472564697266 40.47646713256836 49.05458831787109 C 40.58777618408203 76.02478790283203 31.68052101135254 97.85872650146484 20.57601356506348 97.85872650146484 C 20.56380081176758 97.85872650146484 20.55308532714844 97.85870361328125 20.54086685180664 97.85865020751953 C 9.419328689575195 97.81254577636719 0.3131904602050781 75.88743591308594 0.2017593383789062 48.8875732421875 C 0.09045028686523438 21.91737365722656 8.997716903686523 0.0834197998046875 20.10222434997559 0.0834197998046875 Z" stroke="none" fill="#26dcfd"/>
    </g>
    <ellipse id="Elipse_27" data-name="Elipse 27" cx="8.573" cy="8.701" rx="8.573" ry="8.701" transform="translate(39.965 43.878)" fill="#26dcfd"/>
  </g>
</svg>
