<?xml version="1.0" standalone="no"?>
<!DOCTYPE svg PUBLIC "-//W3C//DTD SVG 20010904//EN"
 "http://www.w3.org/TR/2001/REC-SVG-20010904/DTD/svg10.dtd">
<svg version="1.0" xmlns="http://www.w3.org/2000/svg"
 width="96.000000pt" height="96.000000pt" viewBox="0 0 96.000000 96.000000"
 preserveAspectRatio="xMidYMid meet">

<g transform="translate(0.000000,96.000000) scale(0.100000,-0.100000)"
fill="#000000" stroke="none">
<path d="M515 870 c-11 -5 -112 -101 -225 -214 l-205 -206 0 -50 0 -50 133
-132 132 -133 50 0 50 0 212 213 213 212 3 150 3 151 -34 34 -35 35 -138 -1
c-77 0 -148 -4 -159 -9z m293 -62 c8 -8 12 -54 12 -142 l0 -130 -198 -198
c-148 -149 -204 -198 -222 -198 -34 0 -260 226 -260 260 0 18 49 74 198 222
l198 198 130 0 c88 0 134 -4 142 -12z"/>
<path d="M640 720 c-11 -11 -20 -29 -20 -40 0 -11 9 -29 20 -40 11 -11 29 -20
40 -20 11 0 29 9 40 20 11 11 20 29 20 40 0 11 -9 29 -20 40 -11 11 -29 20
-40 20 -11 0 -29 -9 -40 -20z"/>
</g>
</svg>
