<?xml version="1.0" standalone="no"?>
<!DOCTYPE svg PUBLIC "-//W3C//DTD SVG 20010904//EN"
 "http://www.w3.org/TR/2001/REC-SVG-20010904/DTD/svg10.dtd">
<svg version="1.0" xmlns="http://www.w3.org/2000/svg"
 width="96.000000pt" height="96.000000pt" viewBox="0 0 96.000000 96.000000"
 preserveAspectRatio="xMidYMid meet">

<g transform="translate(0.000000,96.000000) scale(0.100000,-0.100000)"
fill="#000000" stroke="none">
<path d="M410 867 c-78 -25 -140 -129 -127 -212 14 -87 65 -144 150 -166 147
-40 279 98 237 248 -31 107 -147 166 -260 130z m138 -67 c42 -26 72 -76 72
-120 0 -44 -30 -94 -72 -120 -117 -71 -259 71 -188 188 26 42 76 72 120 72 19
0 50 -9 68 -20z"/>
<path d="M185 375 c-19 -18 -25 -35 -25 -70 0 -137 121 -220 320 -220 112 0
189 21 245 68 73 60 99 174 50 222 l-24 25 -271 0 -271 0 -24 -25z m549 -87
c0 -58 -24 -86 -97 -119 -44 -20 -69 -23 -157 -23 -88 0 -113 3 -157 23 -64
28 -92 58 -100 104 -11 70 -22 68 259 65 l253 -3 -1 -47z"/>
</g>
</svg>
